<?xml version="1.0" encoding="UTF-8"?><svg id="Layer_1" xmlns="http://www.w3.org/2000/svg" viewBox="0 0 245.76 245.76"><rect x="-2.67" y="-2.63" width="250.66" height="250.66" fill="#1b1cf4"/><path d="M125.04,170.56h0c5.16,2.96,10.73,4.78,16.34,5.86-8.66,12.39-19.14,21.21-19.3,21.33-.19-.16-10.67-8.98-19.3-21.33,5.6-1.05,11.21-2.87,16.34-5.86h0l1.97-1.21c.35-.22.67-.45.99-.7.96.67,1.94,1.31,2.96,1.88v.03ZM122.08,38.79c.16.16,30.57,25.54,30.57,50.95,0,4.62-1.02,8.98-2.83,12.9,4.17.41,8.31,1.72,12.16,3.95,22.04,12.71,28.82,51.81,28.85,51.94-.32.13-37.45,13.69-59.42.99-3.76-2.17-6.91-5.03-9.33-8.31-2.42,3.28-5.57,6.15-9.33,8.31-22,12.71-59.16-.92-59.42-.99.03-.1,6.81-39.23,28.85-51.94,3.85-2.23,7.99-3.53,12.16-3.95-1.82-3.92-2.83-8.28-2.83-12.9,0-25.38,30.38-50.79,30.57-50.95ZM122.08,102.48c-7.04,0-12.74,5.7-12.74,12.74s5.7,12.74,12.74,12.74,12.74-5.7,12.74-12.74-5.7-12.74-12.74-12.74ZM82.15,71.91c-2.04,5.6-3.34,11.62-3.34,17.83,0,1.4.06,2.8.22,4.17-.35.16-.73.35-1.08.51l-2.07,1.11h0c-5.06,2.93-9.39,6.78-13.09,11.02-6.81-14.11-9.33-28.4-9.36-28.56.29-.1,13.5-4.87,28.79-6.11l-.06.03ZM162.04,71.91c15.28,1.21,28.53,6.02,28.79,6.11-.06.29-2.58,14.52-9.39,28.56-3.03-3.47-6.43-6.66-10.35-9.3l-2.74-1.69h0l-2.07-1.11c-.35-.19-.73-.35-1.08-.51.13-1.37.22-2.74.22-4.17,0-6.21-1.34-12.23-3.38-17.83v-.06Z" fill="#fff"/></svg>